<?xml version="1.0" encoding="UTF-8"?>
<svg xmlns="http://www.w3.org/2000/svg" xmlns:xlink="http://www.w3.org/1999/xlink" width="720px" height="px" viewBox="0 0 720 900" version="1.1">
<g id="surface1">
<path style=" stroke:none;fill-rule:evenodd;fill:rgb(0%,0%,0%);fill-opacity:1;" d="M 340.402344 801.78125 L 340.402344 881.164062 L 323.683594 881.164062 L 323.683594 801.78125 L 303.621094 801.78125 L 303.621094 787.574219 L 360.464844 787.574219 L 360.464844 801.78125 Z M 393.332031 801.78125 C 380.792969 801.78125 373.269531 815.984375 373.269531 835.207031 C 373.269531 854.425781 380.792969 867.792969 393.332031 867.792969 C 405.871094 867.792969 413.394531 854.425781 413.394531 835.207031 C 413.394531 815.984375 405.871094 801.78125 393.332031 801.78125 Z M 393.332031 883.671875 C 367.417969 883.671875 355.71875 861.109375 355.71875 835.207031 C 355.71875 809.304688 367.417969 786.742188 393.332031 786.742188 C 419.242188 786.742188 430.945312 809.304688 430.945312 835.207031 C 430.945312 861.109375 419.242188 883.671875 393.332031 883.671875 Z M 536.171875 882 C 514.441406 882 506.917969 868.628906 506.082031 850.25 L 521.964844 850.25 C 521.964844 858.605469 526.144531 867.792969 536.171875 867.792969 C 544.53125 867.792969 549.546875 863.617188 549.546875 856.929688 C 549.546875 851.082031 545.371094 847.742188 527.816406 837.710938 C 515.277344 831.027344 506.917969 823.507812 506.917969 810.136719 C 506.917969 795.933594 516.109375 785.90625 535.335938 785.90625 C 556.234375 785.90625 563.757812 799.273438 564.59375 815.148438 L 547.875 815.148438 C 547.875 806.796875 543.695312 800.109375 535.335938 800.109375 C 528.652344 800.109375 523.636719 803.453125 523.636719 809.304688 C 523.636719 815.148438 528.652344 818.496094 542.023438 826.015625 C 557.074219 834.371094 566.265625 840.21875 566.265625 856.097656 C 566.265625 872.8125 552.058594 882 536.171875 882 Z M 487.488281 881.164062 L 459.90625 831.027344 L 464.921875 831.027344 C 470.773438 831.027344 480.800781 829.355469 480.800781 815.984375 C 480.800781 804.289062 470.773438 801.78125 464.082031 801.78125 L 454.050781 801.78125 L 454.050781 881.164062 L 437.335938 881.164062 L 437.335938 787.574219 L 468.261719 787.574219 C 486.652344 787.574219 499.1875 796.769531 499.1875 814.316406 C 499.1875 831.027344 489.164062 837.710938 483.3125 840.21875 L 507.550781 881.164062 Z M 271.589844 801.78125 C 259.050781 801.78125 251.53125 815.984375 251.53125 835.207031 C 251.53125 854.425781 259.050781 867.792969 271.589844 867.792969 C 284.125 867.792969 291.652344 854.425781 291.652344 835.207031 C 291.652344 815.984375 284.125 801.78125 271.589844 801.78125 Z M 271.589844 883.671875 C 245.675781 883.671875 233.972656 861.109375 233.972656 835.207031 C 233.972656 809.304688 245.675781 786.742188 271.589844 786.742188 C 297.503906 786.742188 309.207031 809.304688 309.207031 835.207031 C 309.207031 861.109375 297.503906 883.671875 271.589844 883.671875 Z M 211.402344 881.164062 L 211.402344 820.167969 L 190.507812 864.453125 L 170.445312 820.167969 L 170.445312 881.164062 L 153.726562 881.164062 L 153.726562 787.574219 L 172.117188 787.574219 L 190.507812 830.191406 L 209.730469 787.574219 L 228.121094 787.574219 L 228.121094 881.164062 Z M 511.5625 750.976562 C 489.832031 750.976562 482.308594 737.605469 481.472656 719.222656 L 497.355469 719.222656 C 497.355469 727.582031 501.535156 736.769531 511.5625 736.769531 C 519.925781 736.769531 524.941406 732.59375 524.941406 725.90625 C 524.941406 720.054688 520.761719 716.714844 503.210938 706.6875 C 490.667969 700.003906 482.308594 692.484375 482.308594 679.113281 C 482.308594 664.910156 491.503906 654.878906 510.730469 654.878906 C 531.628906 654.878906 539.152344 668.25 539.988281 684.125 L 524.101562 684.125 C 523.269531 675.769531 519.089844 669.082031 510.730469 669.082031 C 504.042969 669.082031 499.027344 672.429688 499.027344 678.277344 C 499.027344 684.125 504.042969 687.472656 517.417969 694.988281 C 532.464844 703.347656 541.660156 709.191406 541.660156 725.070312 C 541.660156 741.785156 527.449219 750.976562 511.5625 750.976562 Z M 634.445312 750.136719 L 634.445312 656.550781 L 651.160156 656.550781 L 651.160156 750.136719 Z M 453.890625 750.136719 L 453.890625 656.550781 L 470.605469 656.550781 L 470.605469 750.136719 Z M 601.84375 750.136719 L 601.84375 709.191406 L 567.570312 709.191406 L 567.570312 750.136719 L 550.015625 750.136719 L 550.015625 656.550781 L 567.570312 656.550781 L 567.570312 693.316406 L 601.007812 693.316406 L 601.007812 656.550781 L 618.5625 656.550781 L 618.5625 750.136719 Z M 411.257812 709.191406 L 404.566406 709.191406 L 404.566406 694.152344 L 411.257812 694.152344 C 419.617188 694.152344 424.632812 690.8125 424.632812 682.453125 C 424.632812 674.101562 418.78125 670.753906 411.257812 670.753906 L 398.714844 670.753906 L 398.714844 735.933594 L 412.09375 735.933594 C 421.285156 735.933594 427.136719 731.757812 427.136719 721.726562 C 427.136719 712.539062 421.285156 709.191406 411.257812 709.191406 Z M 416.273438 750.136719 L 382 750.136719 L 382 656.550781 L 412.929688 656.550781 C 430.484375 656.550781 441.347656 664.910156 441.347656 679.949219 C 441.347656 692.484375 432.15625 700.003906 427.972656 700.839844 C 433.828125 702.511719 444.695312 709.191406 444.695312 724.234375 C 444.695312 739.277344 432.992188 750.136719 416.273438 750.136719 Z M 340.207031 751.8125 C 325.160156 751.8125 307.601562 745.960938 307.601562 720.890625 L 307.601562 656.550781 L 324.320312 656.550781 L 324.320312 720.890625 C 324.320312 730.917969 329.339844 736.769531 340.207031 736.769531 C 349.398438 736.769531 354.417969 730.917969 354.417969 720.890625 L 354.417969 656.550781 L 371.132812 656.550781 L 371.132812 720.890625 C 371.132812 745.125 354.417969 751.8125 340.207031 751.8125 Z M 270.523438 752.648438 C 248.789062 752.648438 241.265625 738.441406 240.429688 720.890625 L 256.3125 720.890625 C 256.3125 729.25 260.492188 737.605469 270.523438 737.605469 C 278.882812 737.605469 283.898438 733.429688 283.898438 726.742188 C 283.898438 720.890625 279.71875 718.386719 262.164062 708.355469 C 249.625 700.839844 241.265625 693.316406 241.265625 679.949219 C 241.265625 665.742188 250.460938 655.714844 269.6875 655.714844 C 290.582031 655.714844 298.105469 669.082031 298.945312 684.960938 L 282.226562 684.960938 C 282.226562 677.441406 278.046875 669.921875 269.6875 669.921875 C 262.164062 669.921875 257.984375 673.265625 257.984375 679.113281 C 257.984375 685.796875 263 689.140625 276.375 695.824219 C 291.421875 704.179688 300.617188 710.867188 300.617188 725.90625 C 300.617188 743.453125 286.40625 752.648438 270.523438 752.648438 Z M 219.53125 670.753906 L 219.53125 750.136719 L 202.816406 750.136719 L 202.816406 670.753906 L 182.753906 670.753906 L 182.753906 656.550781 L 239.597656 656.550781 L 239.597656 670.753906 Z M 158.507812 750.136719 L 158.507812 656.550781 L 175.230469 656.550781 L 175.230469 750.136719 Z M 126.75 750.136719 L 126.75 689.140625 L 105.851562 733.429688 L 85.785156 689.140625 L 85.785156 750.136719 L 69.070312 750.136719 L 69.070312 656.550781 L 87.460938 656.550781 L 105.851562 699.167969 L 125.078125 656.550781 L 143.464844 656.550781 L 143.464844 750.136719 Z M 126.75 750.136719 "/>
<path style=" stroke:none;fill-rule:evenodd;fill:rgb(100%,0%,0%);fill-opacity:1;" d="M 359.535156 405.617188 L 247.1875 211.175781 L 359.535156 15.898438 L 472.71875 211.175781 Z M 472.71875 600.0625 L 359.535156 405.617188 L 585.066406 405.617188 L 697.414062 600.0625 Z M 247.1875 600.0625 L 22.496094 600.0625 L 134.84375 405.617188 L 359.535156 405.617188 Z M 247.1875 600.0625 "/>
</g>
</svg>
