<?xml version="1.0" encoding="UTF-8"?>
<svg xmlns="http://www.w3.org/2000/svg" xmlns:xlink="http://www.w3.org/1999/xlink" width="720px" height="px" viewBox="0 0 720 480" version="1.1">
<defs>
<radialGradient id="radial0" gradientUnits="userSpaceOnUse" cx="-807.754" cy="596.238" fx="-807.754" fy="596.238" r="1" gradientTransform="matrix(1195.671508,0,0,-1165.902462,966166.043077,696437.335385)">
<stop offset="0" style="stop-color:rgb(0%,1.960784%,5.098039%);stop-opacity:1;"/>
<stop offset="0.7" style="stop-color:rgb(1.960784%,6.666667%,14.509804%);stop-opacity:1;"/>
<stop offset="0.904" style="stop-color:rgb(9.019608%,24.313725%,49.411765%);stop-opacity:1;"/>
<stop offset="0.955" style="stop-color:rgb(29.803922%,66.27451%,89.019608%);stop-opacity:1;"/>
<stop offset="1" style="stop-color:rgb(29.803922%,66.27451%,89.019608%);stop-opacity:1;"/>
</radialGradient>
<linearGradient id="linear0" gradientUnits="userSpaceOnUse" x1="-813.207" y1="589.941" x2="-812.207" y2="589.941" gradientTransform="matrix(0,-211.052677,-211.052677,0,124868.148923,-171283.349538)">
<stop offset="0" style="stop-color:rgb(3.137255%,7.843137%,18.039216%);stop-opacity:1;"/>
<stop offset="0.809" style="stop-color:rgb(9.019608%,19.607843%,43.137255%);stop-opacity:1;"/>
<stop offset="1" style="stop-color:rgb(5.098039%,41.176471%,66.27451%);stop-opacity:1;"/>
</linearGradient>
<linearGradient id="linear1" gradientUnits="userSpaceOnUse" x1="-813.207" y1="589.942" x2="-812.207" y2="589.942" gradientTransform="matrix(0,-211.071877,-211.071877,0,124883.019692,-171298.855385)">
<stop offset="0" style="stop-color:rgb(3.137255%,7.843137%,18.039216%);stop-opacity:1;"/>
<stop offset="0.809" style="stop-color:rgb(9.019608%,19.607843%,43.137255%);stop-opacity:1;"/>
<stop offset="1" style="stop-color:rgb(5.098039%,41.176471%,66.27451%);stop-opacity:1;"/>
</linearGradient>
<linearGradient id="linear2" gradientUnits="userSpaceOnUse" x1="-815.072" y1="586.812" x2="-814.072" y2="586.812" gradientTransform="matrix(0,-146.233846,-146.233846,0,86219.047385,-118881.203077)">
<stop offset="0" style="stop-color:rgb(3.137255%,7.843137%,18.039216%);stop-opacity:1;"/>
<stop offset="0.809" style="stop-color:rgb(9.019608%,19.607843%,43.137255%);stop-opacity:1;"/>
<stop offset="1" style="stop-color:rgb(5.098039%,41.176471%,66.27451%);stop-opacity:1;"/>
</linearGradient>
<linearGradient id="linear3" gradientUnits="userSpaceOnUse" x1="-814.992" y1="586.946" x2="-813.992" y2="586.946" gradientTransform="matrix(0,-148.182646,-148.182646,0,87444.965538,-120457.163077)">
<stop offset="0" style="stop-color:rgb(3.137255%,7.843137%,18.039216%);stop-opacity:1;"/>
<stop offset="0.809" style="stop-color:rgb(9.019608%,19.607843%,43.137255%);stop-opacity:1;"/>
<stop offset="1" style="stop-color:rgb(5.098039%,41.176471%,66.27451%);stop-opacity:1;"/>
</linearGradient>
<linearGradient id="linear4" gradientUnits="userSpaceOnUse" x1="-815.541" y1="586.024" x2="-814.541" y2="586.024" gradientTransform="matrix(0.000000000000008312,-135.743446,135.743446,0.000000000000008312,80027.822769,-110399.641846)">
<stop offset="0" style="stop-color:rgb(3.137255%,7.843137%,18.039216%);stop-opacity:1;"/>
<stop offset="0.809" style="stop-color:rgb(9.019608%,19.607843%,43.137255%);stop-opacity:1;"/>
<stop offset="1" style="stop-color:rgb(5.098039%,41.176471%,66.27451%);stop-opacity:1;"/>
</linearGradient>
<linearGradient id="linear5" gradientUnits="userSpaceOnUse" x1="-815.328" y1="586.382" x2="-814.328" y2="586.382" gradientTransform="matrix(0,-140.314708,-140.314708,0,82675.233231,-114095.835692)">
<stop offset="0" style="stop-color:rgb(3.137255%,7.843137%,18.039216%);stop-opacity:1;"/>
<stop offset="0.809" style="stop-color:rgb(9.019608%,19.607843%,43.137255%);stop-opacity:1;"/>
<stop offset="1" style="stop-color:rgb(5.098039%,41.176471%,66.27451%);stop-opacity:1;"/>
</linearGradient>
<linearGradient id="linear6" gradientUnits="userSpaceOnUse" x1="-815.002" y1="586.93" x2="-814.002" y2="586.93" gradientTransform="matrix(0,-147.944308,-147.944308,0,87288.808615,-120264.419077)">
<stop offset="0" style="stop-color:rgb(3.137255%,7.843137%,18.039216%);stop-opacity:1;"/>
<stop offset="0.809" style="stop-color:rgb(9.019608%,19.607843%,43.137255%);stop-opacity:1;"/>
<stop offset="1" style="stop-color:rgb(5.098039%,41.176471%,66.27451%);stop-opacity:1;"/>
</linearGradient>
<linearGradient id="linear7" gradientUnits="userSpaceOnUse" x1="-815.003" y1="586.928" x2="-814.003" y2="586.928" gradientTransform="matrix(0,-147.912923,-147.912923,0,87142.104,-120239.128615)">
<stop offset="0" style="stop-color:rgb(3.137255%,7.843137%,18.039216%);stop-opacity:1;"/>
<stop offset="0.809" style="stop-color:rgb(9.019608%,19.607843%,43.137255%);stop-opacity:1;"/>
<stop offset="1" style="stop-color:rgb(5.098039%,41.176471%,66.27451%);stop-opacity:1;"/>
</linearGradient>
<linearGradient id="linear8" gradientUnits="userSpaceOnUse" x1="-815.045" y1="586.858" x2="-814.045" y2="586.858" gradientTransform="matrix(0.000000000000008995,-146.9016,146.9016,0.000000000000008995,86602.242462,-119421.090462)">
<stop offset="0" style="stop-color:rgb(3.137255%,7.843137%,18.039216%);stop-opacity:1;"/>
<stop offset="0.809" style="stop-color:rgb(9.019608%,19.607843%,43.137255%);stop-opacity:1;"/>
<stop offset="1" style="stop-color:rgb(5.098039%,41.176471%,66.27451%);stop-opacity:1;"/>
</linearGradient>
<linearGradient id="linear9" gradientUnits="userSpaceOnUse" x1="-815.001" y1="586.932" x2="-814.001" y2="586.932" gradientTransform="matrix(0,-147.978092,-147.978092,0,87323.148923,-120291.793846)">
<stop offset="0" style="stop-color:rgb(3.137255%,7.843137%,18.039216%);stop-opacity:1;"/>
<stop offset="0.809" style="stop-color:rgb(9.019608%,19.607843%,43.137255%);stop-opacity:1;"/>
<stop offset="1" style="stop-color:rgb(5.098039%,41.176471%,66.27451%);stop-opacity:1;"/>
</linearGradient>
<linearGradient id="linear10" gradientUnits="userSpaceOnUse" x1="-814.997" y1="586.938" x2="-813.997" y2="586.938" gradientTransform="matrix(0,-148.072062,-148.072062,0,87329.069538,-120367.746462)">
<stop offset="0" style="stop-color:rgb(3.137255%,7.843137%,18.039216%);stop-opacity:1;"/>
<stop offset="0.809" style="stop-color:rgb(9.019608%,19.607843%,43.137255%);stop-opacity:1;"/>
<stop offset="1" style="stop-color:rgb(5.098039%,41.176471%,66.27451%);stop-opacity:1;"/>
</linearGradient>
<linearGradient id="linear11" gradientUnits="userSpaceOnUse" x1="-815.002" y1="586.929" x2="-814.002" y2="586.929" gradientTransform="matrix(0,-147.941723,-147.941723,0,87331.990154,-120262.436308)">
<stop offset="0" style="stop-color:rgb(3.137255%,7.843137%,18.039216%);stop-opacity:1;"/>
<stop offset="0.809" style="stop-color:rgb(9.019608%,19.607843%,43.137255%);stop-opacity:1;"/>
<stop offset="1" style="stop-color:rgb(5.098039%,41.176471%,66.27451%);stop-opacity:1;"/>
</linearGradient>
<linearGradient id="linear12" gradientUnits="userSpaceOnUse" x1="-815.144" y1="586.692" x2="-814.144" y2="586.692" gradientTransform="matrix(0,-144.527446,-144.527446,0,85150.737231,-117501.823385)">
<stop offset="0" style="stop-color:rgb(3.137255%,7.843137%,18.039216%);stop-opacity:1;"/>
<stop offset="0.809" style="stop-color:rgb(9.019608%,19.607843%,43.137255%);stop-opacity:1;"/>
<stop offset="1" style="stop-color:rgb(5.098039%,41.176471%,66.27451%);stop-opacity:1;"/>
</linearGradient>
<linearGradient id="linear13" gradientUnits="userSpaceOnUse" x1="-815.043" y1="586.861" x2="-814.043" y2="586.861" gradientTransform="matrix(0,-146.947015,-146.947015,0,86572.139077,-119457.701538)">
<stop offset="0" style="stop-color:rgb(3.137255%,7.843137%,18.039216%);stop-opacity:1;"/>
<stop offset="0.809" style="stop-color:rgb(9.019608%,19.607843%,43.137255%);stop-opacity:1;"/>
<stop offset="1" style="stop-color:rgb(5.098039%,41.176471%,66.27451%);stop-opacity:1;"/>
</linearGradient>
<linearGradient id="linear14" gradientUnits="userSpaceOnUse" x1="-815.002" y1="586.929" x2="-814.002" y2="586.929" gradientTransform="matrix(0,-147.935262,-147.935262,0,87050.580923,-120257.208)">
<stop offset="0" style="stop-color:rgb(3.137255%,7.843137%,18.039216%);stop-opacity:1;"/>
<stop offset="0.809" style="stop-color:rgb(9.019608%,19.607843%,43.137255%);stop-opacity:1;"/>
<stop offset="1" style="stop-color:rgb(5.098039%,41.176471%,66.27451%);stop-opacity:1;"/>
</linearGradient>
<linearGradient id="linear15" gradientUnits="userSpaceOnUse" x1="-815.004" y1="586.927" x2="-814.004" y2="586.927" gradientTransform="matrix(0,-147.903692,-147.903692,0,87097.896,-120231.6)">
<stop offset="0" style="stop-color:rgb(3.137255%,7.843137%,18.039216%);stop-opacity:1;"/>
<stop offset="0.809" style="stop-color:rgb(9.019608%,19.607843%,43.137255%);stop-opacity:1;"/>
<stop offset="1" style="stop-color:rgb(5.098039%,41.176471%,66.27451%);stop-opacity:1;"/>
</linearGradient>
<linearGradient id="linear16" gradientUnits="userSpaceOnUse" x1="-815.002" y1="586.929" x2="-814.002" y2="586.929" gradientTransform="matrix(0,-147.940431,-147.940431,0,87100.572923,-120261.354462)">
<stop offset="0" style="stop-color:rgb(3.137255%,7.843137%,18.039216%);stop-opacity:1;"/>
<stop offset="0.809" style="stop-color:rgb(9.019608%,19.607843%,43.137255%);stop-opacity:1;"/>
<stop offset="1" style="stop-color:rgb(5.098039%,41.176471%,66.27451%);stop-opacity:1;"/>
</linearGradient>
<linearGradient id="linear17" gradientUnits="userSpaceOnUse" x1="-814.999" y1="586.934" x2="-813.999" y2="586.934" gradientTransform="matrix(0,-148.014646,-148.014646,0,87148.355077,-120321.304615)">
<stop offset="0" style="stop-color:rgb(3.137255%,7.843137%,18.039216%);stop-opacity:1;"/>
<stop offset="0.809" style="stop-color:rgb(9.019608%,19.607843%,43.137255%);stop-opacity:1;"/>
<stop offset="1" style="stop-color:rgb(5.098039%,41.176471%,66.27451%);stop-opacity:1;"/>
</linearGradient>
<linearGradient id="linear18" gradientUnits="userSpaceOnUse" x1="-815.133" y1="586.711" x2="-814.133" y2="586.711" gradientTransform="matrix(0,-144.794954,-144.794954,0,85393.190769,-117719.396308)">
<stop offset="0" style="stop-color:rgb(3.137255%,7.843137%,18.039216%);stop-opacity:1;"/>
<stop offset="0.809" style="stop-color:rgb(9.019608%,19.607843%,43.137255%);stop-opacity:1;"/>
<stop offset="1" style="stop-color:rgb(5.098039%,41.176471%,66.27451%);stop-opacity:1;"/>
</linearGradient>
<linearGradient id="linear19" gradientUnits="userSpaceOnUse" x1="-815.003" y1="586.928" x2="-814.003" y2="586.928" gradientTransform="matrix(0,-147.924,-147.924,0,87194.963077,-120248.086154)">
<stop offset="0" style="stop-color:rgb(3.137255%,7.843137%,18.039216%);stop-opacity:1;"/>
<stop offset="0.809" style="stop-color:rgb(9.019608%,19.607843%,43.137255%);stop-opacity:1;"/>
<stop offset="1" style="stop-color:rgb(5.098039%,41.176471%,66.27451%);stop-opacity:1;"/>
</linearGradient>
<linearGradient id="linear20" gradientUnits="userSpaceOnUse" x1="-815.354" y1="586.339" x2="-814.354" y2="586.339" gradientTransform="matrix(0,-139.754954,-139.754954,0,82279.615385,-113644.349538)">
<stop offset="0" style="stop-color:rgb(3.137255%,7.843137%,18.039216%);stop-opacity:1;"/>
<stop offset="0.809" style="stop-color:rgb(9.019608%,19.607843%,43.137255%);stop-opacity:1;"/>
<stop offset="1" style="stop-color:rgb(5.098039%,41.176471%,66.27451%);stop-opacity:1;"/>
</linearGradient>
<linearGradient id="linear21" gradientUnits="userSpaceOnUse" x1="-815.002" y1="586.929" x2="-814.002" y2="586.929" gradientTransform="matrix(0,-147.940062,-147.940062,0,87170.870769,-120261.024)">
<stop offset="0" style="stop-color:rgb(3.137255%,7.843137%,18.039216%);stop-opacity:1;"/>
<stop offset="0.809" style="stop-color:rgb(9.019608%,19.607843%,43.137255%);stop-opacity:1;"/>
<stop offset="1" style="stop-color:rgb(5.098039%,41.176471%,66.27451%);stop-opacity:1;"/>
</linearGradient>
<linearGradient id="linear22" gradientUnits="userSpaceOnUse" x1="-815.002" y1="586.93" x2="-814.002" y2="586.93" gradientTransform="matrix(0,-147.9456,-147.9456,0,87093.079385,-120265.500923)">
<stop offset="0" style="stop-color:rgb(3.137255%,7.843137%,18.039216%);stop-opacity:1;"/>
<stop offset="0.809" style="stop-color:rgb(9.019608%,19.607843%,43.137255%);stop-opacity:1;"/>
<stop offset="1" style="stop-color:rgb(5.098039%,41.176471%,66.27451%);stop-opacity:1;"/>
</linearGradient>
<linearGradient id="linear23" gradientUnits="userSpaceOnUse" x1="-814.029" y1="592.109" x2="-813.029" y2="592.109" gradientTransform="matrix(-63.983566,-238.789918,-238.789918,63.983566,89604.311606,-231873.99073)">
<stop offset="0" style="stop-color:rgb(69.803922%,69.411765%,69.411765%);stop-opacity:1;"/>
<stop offset="0.35" style="stop-color:rgb(87.058824%,86.666667%,87.058824%);stop-opacity:1;"/>
<stop offset="0.65" style="stop-color:rgb(87.058824%,86.666667%,87.058824%);stop-opacity:1;"/>
<stop offset="1" style="stop-color:rgb(69.803922%,69.411765%,69.411765%);stop-opacity:1;"/>
</linearGradient>
<linearGradient id="linear24" gradientUnits="userSpaceOnUse" x1="-814.053" y1="592.086" x2="-813.053" y2="592.086" gradientTransform="matrix(-63.686878,-237.682663,-237.682663,63.686878,89351.564455,-230931.512331)">
<stop offset="0" style="stop-color:rgb(69.803922%,69.411765%,69.411765%);stop-opacity:1;"/>
<stop offset="0.35" style="stop-color:rgb(87.058824%,86.666667%,87.058824%);stop-opacity:1;"/>
<stop offset="0.65" style="stop-color:rgb(87.058824%,86.666667%,87.058824%);stop-opacity:1;"/>
<stop offset="1" style="stop-color:rgb(69.803922%,69.411765%,69.411765%);stop-opacity:1;"/>
</linearGradient>
<linearGradient id="linear25" gradientUnits="userSpaceOnUse" x1="-804.814" y1="604.023" x2="-803.814" y2="604.023" gradientTransform="matrix(0,212.140615,212.140615,0,-127777.788923,170867.429538)">
<stop offset="0" style="stop-color:rgb(100%,100%,100%);stop-opacity:1;"/>
<stop offset="0.552" style="stop-color:rgb(100%,100%,100%);stop-opacity:1;"/>
<stop offset="0.691" style="stop-color:rgb(98.039216%,98.039216%,98.039216%);stop-opacity:1;"/>
<stop offset="0.8" style="stop-color:rgb(82.745098%,82.352941%,82.352941%);stop-opacity:1;"/>
<stop offset="1" style="stop-color:rgb(74.117647%,73.72549%,73.72549%);stop-opacity:1;"/>
</linearGradient>
<linearGradient id="linear26" gradientUnits="userSpaceOnUse" x1="-800.559" y1="611.161" x2="-799.559" y2="611.161" gradientTransform="matrix(0,105.2088,105.2088,0,-63896.091692,84427.469538)">
<stop offset="0" style="stop-color:rgb(100%,100%,100%);stop-opacity:1;"/>
<stop offset="0.552" style="stop-color:rgb(100%,100%,100%);stop-opacity:1;"/>
<stop offset="0.691" style="stop-color:rgb(93.72549%,93.333333%,93.333333%);stop-opacity:1;"/>
<stop offset="0.8" style="stop-color:rgb(91.372549%,91.372549%,91.372549%);stop-opacity:1;"/>
<stop offset="1" style="stop-color:rgb(82.745098%,82.352941%,82.352941%);stop-opacity:1;"/>
</linearGradient>
<linearGradient id="linear27" gradientUnits="userSpaceOnUse" x1="-802.915" y1="607.208" x2="-801.915" y2="607.208" gradientTransform="matrix(0.000000000000008936,145.943815,-145.943815,0.000000000000008936,-88298.745231,117341.972308)">
<stop offset="0" style="stop-color:rgb(100%,100%,100%);stop-opacity:1;"/>
<stop offset="0.552" style="stop-color:rgb(100%,100%,100%);stop-opacity:1;"/>
<stop offset="0.691" style="stop-color:rgb(93.72549%,93.333333%,93.333333%);stop-opacity:1;"/>
<stop offset="0.8" style="stop-color:rgb(91.372549%,91.372549%,91.372549%);stop-opacity:1;"/>
<stop offset="1" style="stop-color:rgb(82.745098%,82.352941%,82.352941%);stop-opacity:1;"/>
</linearGradient>
</defs>
<g id="surface1">
<path style=" stroke:none;fill-rule:nonzero;fill:rgb(82.745098%,82.352941%,82.352941%);fill-opacity:1;" d="M 635.261719 232.0625 C 635.445312 232.617188 635.445312 232.984375 635.445312 233.539062 C 635.445312 232.984375 635.261719 232.617188 635.261719 232.0625 M 360 136.246094 C 206.214844 136.246094 83.078125 182.398438 83.078125 240 C 83.078125 297.414062 207.324219 343.753906 360 343.753906 C 512.675781 343.753906 636.921875 297.230469 636.921875 240 C 636.921875 182.769531 512.675781 136.246094 360 136.246094 "/>
<path style=" stroke:none;fill-rule:nonzero;fill:url(#radial0);" d="M 87.324219 240 C 87.324219 295.015625 209.355469 339.691406 360 339.691406 C 510.644531 339.691406 632.675781 295.199219 632.675781 240 C 632.675781 184.984375 510.644531 140.308594 360 140.308594 C 209.355469 140.308594 87.324219 184.984375 87.324219 240 "/>
<path style=" stroke:none;fill-rule:nonzero;fill:url(#linear0);" d="M 107.816406 240 C 107.816406 243.691406 108.554688 247.382812 110.03125 251.078125 C 109.476562 248.675781 109.109375 246.277344 109.109375 243.875 C 109.109375 198.277344 221.90625 161.355469 361.292969 161.355469 C 489.414062 161.355469 595.199219 192.554688 611.261719 233.167969 C 600.554688 190.523438 492.183594 157.109375 360 157.109375 C 220.800781 156.921875 107.816406 194.214844 107.816406 240 "/>
<path style=" stroke:none;fill-rule:nonzero;fill:url(#linear1);" d="M 621.230469 240 C 621.230469 290.214844 504.183594 331.015625 360 331.015625 C 231.507812 331.015625 124.800781 298.707031 102.832031 256.246094 C 119.628906 300.554688 229.109375 334.707031 361.847656 334.707031 C 506.214844 334.707031 623.078125 294.277344 623.078125 244.617188 C 623.078125 239.628906 621.785156 234.644531 619.570312 229.847656 C 620.675781 232.984375 621.230469 236.492188 621.230469 240 "/>
<path style=" stroke:none;fill-rule:nonzero;fill:url(#linear2);" d="M 408.738281 248.863281 C 402.832031 254.953125 402.460938 262.890625 406.339844 266.398438 C 407.628906 267.691406 409.292969 268.246094 410.953125 268.429688 C 408.371094 265.292969 407.261719 259.015625 410.398438 254.214844 C 409.847656 252.738281 409.660156 251.078125 410.03125 249.414062 C 410.03125 249.046875 409.847656 248.675781 409.476562 248.675781 C 409.109375 248.492188 408.921875 248.675781 408.738281 248.863281 "/>
<path style=" stroke:none;fill-rule:nonzero;fill:url(#linear3);" d="M 469.109375 261.785156 C 469.109375 262.707031 469.476562 264.371094 469.660156 265.660156 C 470.03125 265.109375 470.214844 264.554688 470.585938 263.816406 C 470.769531 263.261719 470.769531 263.261719 470.398438 263.078125 C 469.847656 262.890625 469.109375 262.339844 469.109375 261.96875 C 468.921875 261.96875 468.921875 261.96875 469.109375 261.785156 Z M 469.109375 261.785156 "/>
<path style=" stroke:none;fill-rule:nonzero;fill:url(#linear4);" d="M 476.125 241.847656 C 478.152344 243.691406 479.261719 245.90625 479.445312 248.125 C 479.445312 249.046875 480.371094 249.230469 480.921875 248.308594 C 481.109375 248.125 481.292969 247.753906 481.476562 247.382812 C 481.292969 247.199219 481.109375 247.015625 480.921875 246.644531 C 480.183594 245.722656 478.152344 243.691406 476.125 241.847656 Z M 476.125 241.847656 "/>
<path style=" stroke:none;fill-rule:nonzero;fill:url(#linear5);" d="M 395.078125 238.152344 C 396.554688 240.371094 397.292969 243.324219 397.292969 247.199219 C 397.292969 248.125 398.03125 248.125 398.398438 247.382812 C 398.585938 247.015625 398.953125 246.644531 399.136719 246.277344 C 398.214844 242.769531 396.371094 239.445312 395.078125 238.152344 Z M 395.078125 238.152344 "/>
<path style=" stroke:none;fill-rule:nonzero;fill:url(#linear6);" d="M 449.167969 258.460938 C 443.628906 265.109375 440.675781 271.9375 440.675781 278.585938 C 440.675781 280.984375 441.601562 283.9375 443.628906 284.863281 C 444.371094 285.230469 444.921875 285.414062 445.660156 285.601562 C 445.476562 284.675781 445.292969 283.753906 445.292969 283.015625 C 445.292969 276.183594 447.324219 269.355469 452.863281 262.523438 C 459.507812 254.398438 466.523438 250.339844 471.324219 252.554688 C 471.136719 250.707031 470.214844 249.230469 468.183594 248.308594 C 467.261719 247.9375 466.339844 247.753906 465.230469 247.753906 C 460.429688 247.753906 454.523438 251.816406 449.167969 258.460938 "/>
<path style=" stroke:none;fill-rule:nonzero;fill:url(#linear7);" d="M 339.507812 244.246094 C 332.125 247.015625 324.738281 251.445312 319.570312 258.277344 C 313.660156 266.03125 312.183594 275.445312 316.0625 280.984375 C 316.984375 282.277344 318.09375 283.199219 319.382812 283.753906 C 317.355469 277.292969 318.832031 268.617188 323.816406 261.96875 C 328.984375 255.136719 334.707031 252.554688 341.167969 249.601562 C 342.09375 249.230469 342.09375 248.675781 341.90625 247.9375 C 341.539062 246.644531 340.800781 243.324219 340.429688 242.585938 C 340.617188 243.507812 340.429688 244.0625 339.507812 244.246094 "/>
<path style=" stroke:none;fill-rule:nonzero;fill:url(#linear8);" d="M 394.890625 265.109375 C 388.0625 275.628906 381.601562 285.785156 374.769531 296.492188 C 374.398438 297.046875 374.03125 297.230469 373.476562 297.414062 L 360 297.414062 C 359.445312 297.414062 359.261719 297.230469 359.078125 296.863281 C 359.445312 298.523438 360 301.476562 360.183594 302.214844 C 360.371094 302.769531 360.738281 302.953125 361.109375 302.953125 L 376.429688 302.953125 C 376.984375 302.953125 377.539062 302.585938 377.722656 302.03125 C 384 292.246094 390.644531 281.722656 396.921875 271.9375 C 398.398438 276.921875 398.953125 279.136719 401.722656 281.539062 C 404.308594 283.9375 406.707031 284.492188 410.398438 284.492188 C 413.722656 284.492188 416.863281 283.199219 420.738281 281.539062 C 422.214844 280.984375 423.324219 280.246094 424.429688 279.507812 C 424.429688 277.660156 424.617188 275.816406 424.984375 274.152344 C 424.984375 273.96875 424.800781 272.863281 423.875 273.414062 C 422.03125 274.707031 419.816406 276 416.863281 277.109375 C 413.355469 278.398438 411.691406 278.953125 408.371094 278.953125 C 404.308594 278.953125 400.617188 277.109375 398.03125 273.046875 C 396.554688 270.832031 396 267.507812 395.816406 265.109375 C 395.816406 264.921875 395.628906 264.738281 395.445312 264.738281 C 395.261719 264.921875 395.078125 264.921875 394.890625 265.109375 "/>
<path style=" stroke:none;fill-rule:nonzero;fill:url(#linear9);" d="M 513.785156 270.644531 C 507.136719 278.769531 499.9375 286.339844 492.921875 291.691406 C 482.03125 300.183594 471.324219 302.214844 465.96875 296.863281 C 463.9375 294.832031 462.832031 292.0625 462.832031 289.476562 C 462.832031 288.183594 462.09375 288.183594 461.539062 288.738281 C 455.078125 295.015625 444 302.03125 433.847656 297.046875 C 428.863281 294.460938 426.09375 289.847656 424.984375 284.675781 C 425.539062 288.371094 426.460938 293.722656 428.125 297.046875 C 429.230469 299.261719 431.816406 301.847656 433.476562 302.585938 C 442.523438 307.015625 455.261719 302.03125 463.570312 294.09375 C 463.570312 293.90625 463.753906 293.90625 463.753906 293.90625 C 464.125 295.382812 464.675781 297.046875 464.675781 297.230469 C 465.230469 299.078125 466.152344 300.738281 466.890625 301.660156 C 472.617188 308.125 484.429688 305.167969 496.984375 295.570312 C 504 290.214844 509.167969 284.863281 515.445312 277.476562 C 515.628906 277.109375 515.628906 276.738281 515.628906 276 C 515.261719 274.339844 514.707031 271.570312 514.339844 270.09375 C 513.96875 270.09375 513.96875 270.460938 513.785156 270.644531 M 424.800781 284.308594 C 424.800781 284.492188 424.800781 284.308594 424.800781 284.308594 Z M 424.800781 284.308594 "/>
<path style=" stroke:none;fill-rule:nonzero;fill:url(#linear10);" d="M 427.9375 248.308594 C 427.382812 252.371094 425.167969 255.875 421.476562 257.722656 C 418.339844 259.199219 414.644531 259.015625 412.0625 256.617188 C 411.324219 255.875 410.769531 254.953125 410.214844 254.03125 C 410.953125 256.984375 411.507812 259.199219 412.246094 260.492188 C 414.644531 264.183594 418.890625 265.109375 423.507812 262.523438 C 426.832031 260.675781 429.785156 256.800781 429.414062 250.707031 C 429.230469 247.570312 428.308594 244.429688 426.832031 241.847656 C 427.9375 243.875 428.308594 246.09375 427.9375 248.308594 "/>
<path style=" stroke:none;fill-rule:nonzero;fill:url(#linear11);" d="M 522.644531 210.277344 C 520.617188 213.96875 480 275.628906 477.414062 282.09375 C 476.675781 284.125 476.492188 285.601562 477.414062 286.707031 C 478.339844 287.816406 479.445312 288.183594 480.921875 288.183594 C 481.109375 287.445312 481.292969 286.523438 481.660156 285.601562 C 484.246094 279.136719 522.277344 221.539062 524.308594 217.847656 C 524.492188 217.476562 524.492188 217.109375 524.308594 216.921875 C 524.125 216.371094 522.832031 210.277344 522.832031 209.722656 C 522.832031 209.90625 522.832031 210.09375 522.644531 210.277344 "/>
<path style=" stroke:none;fill-rule:nonzero;fill:url(#linear12);" d="M 354.277344 239.078125 L 354.644531 239.445312 C 357.046875 243.136719 358.339844 248.125 358.523438 253.476562 C 358.707031 254.585938 359.078125 254.585938 359.628906 254.03125 C 360.183594 253.476562 360.554688 252.921875 361.109375 252.554688 C 360.371094 249.785156 359.261719 247.199219 358.152344 244.800781 C 357.785156 243.691406 355.9375 240.554688 354.277344 239.078125 Z M 354.277344 239.078125 "/>
<path style=" stroke:none;fill-rule:nonzero;fill:url(#linear13);" d="M 374.953125 251.261719 C 366.277344 257.90625 358.890625 268.246094 355.199219 272.863281 C 352.984375 275.628906 350.953125 279.507812 345.230469 285.785156 C 336.183594 295.570312 324.183594 301.292969 312.738281 297.230469 C 306.460938 295.199219 301.847656 290.03125 300.183594 283.753906 C 299.816406 282.460938 299.078125 282.277344 298.523438 283.015625 C 296.675781 285.414062 292.800781 288.738281 289.660156 290.953125 C 289.292969 291.136719 288.371094 291.691406 287.628906 291.324219 C 286.890625 290.953125 284.675781 287.628906 284.125 286.707031 C 284.125 286.523438 283.9375 286.523438 283.9375 286.339844 C 284.675781 290.398438 284.863281 290.953125 285.96875 292.800781 C 287.261719 294.832031 288.554688 296.308594 288.738281 296.492188 C 289.476562 296.863281 290.214844 296.492188 290.585938 296.308594 C 292.984375 295.015625 297.785156 291.324219 300 288.738281 C 300.554688 288.183594 301.292969 288.554688 301.476562 289.109375 C 302.398438 291.875 303.691406 293.90625 304.984375 296.308594 C 306.460938 298.890625 309.601562 301.476562 313.660156 302.585938 C 318.832031 304.0625 324.554688 304.246094 331.9375 301.476562 C 337.847656 299.261719 344.125 294.644531 348.921875 289.292969 C 354.644531 283.015625 356.675781 279.136719 358.890625 276.371094 C 362.585938 271.753906 368.492188 263.628906 376.617188 256.617188 C 379.382812 254.214844 382.523438 252.554688 384.554688 253.292969 C 385.660156 250.339844 385.109375 248.675781 384 247.753906 C 383.628906 247.570312 383.078125 247.382812 382.523438 247.382812 C 380.308594 247.753906 377.539062 249.414062 374.953125 251.261719 "/>
<path style=" stroke:none;fill-rule:nonzero;fill:url(#linear14);" d="M 229.476562 242.953125 C 224.492188 245.539062 218.585938 249.785156 215.628906 255.691406 C 213.230469 260.492188 212.863281 266.214844 216.371094 271.753906 C 216.738281 272.125 216.921875 272.675781 217.292969 273.046875 C 216.183594 268.429688 217.476562 263.628906 219.136719 259.9375 C 222.09375 254.03125 226.152344 251.261719 230.214844 248.675781 C 231.875 247.570312 232.800781 246.460938 231.691406 243.691406 C 231.324219 242.953125 231.136719 241.476562 230.953125 240.183594 C 231.136719 241.292969 230.585938 242.398438 229.476562 242.953125 "/>
<path style=" stroke:none;fill-rule:nonzero;fill:url(#linear15);" d="M 266.585938 184.0625 C 252.371094 189.414062 246.09375 200.675781 249.046875 208.246094 C 249.601562 209.722656 250.523438 210.832031 251.816406 211.570312 C 250.890625 204.554688 256.0625 193.292969 269.722656 188.675781 C 287.628906 182.769531 307.570312 186.460938 323.628906 189.96875 C 325.847656 188.492188 327.875 187.570312 329.722656 186.460938 C 330.644531 185.90625 329.539062 185.355469 329.355469 185.355469 C 316.617188 182.953125 303.324219 180 290.398438 180 C 282.277344 180 274.339844 181.109375 266.585938 184.0625 "/>
<path style=" stroke:none;fill-rule:nonzero;fill:url(#linear16);" d="M 326.214844 226.339844 C 319.753906 226.707031 309.785156 227.628906 302.953125 228.554688 C 301.292969 228.738281 301.109375 229.109375 300.738281 229.660156 C 289.847656 247.570312 278.398438 266.769531 265.660156 279.691406 C 252 293.539062 240.738281 297.230469 228.738281 297.230469 C 214.890625 297.414062 202.523438 289.476562 199.382812 275.628906 C 201.046875 283.382812 206.03125 292.617188 211.753906 296.675781 C 217.660156 300.738281 223.382812 302.214844 230.03125 302.214844 C 243.691406 302.398438 256.246094 296.863281 269.539062 283.382812 C 282.277344 270.460938 293.355469 252.371094 304.0625 234.460938 C 304.429688 233.90625 304.800781 233.539062 306.644531 233.355469 C 313.476562 232.429688 319.570312 232.0625 325.660156 231.507812 C 327.507812 231.324219 328.800781 231.136719 329.539062 231.875 C 331.753906 234.09375 334.152344 236.125 336 237.046875 C 337.109375 237.046875 338.03125 237.230469 338.769531 237.96875 C 339.507812 237.785156 340.0625 237.414062 340.617188 237.046875 C 341.355469 236.308594 341.355469 235.382812 341.355469 234.644531 C 341.167969 233.167969 340.617188 230.214844 340.246094 229.476562 C 340.617188 230.03125 340.429688 230.953125 339.691406 231.691406 C 339.136719 232.246094 338.398438 232.800781 337.476562 232.800781 C 336.738281 232.800781 336.183594 232.429688 335.261719 232.0625 C 333.230469 230.953125 330.644531 229.109375 328.984375 227.078125 C 328.617188 226.523438 328.246094 226.339844 327.507812 226.339844 C 326.769531 226.152344 326.585938 226.339844 326.214844 226.339844 "/>
<path style=" stroke:none;fill-rule:nonzero;fill:url(#linear17);" d="M 267.507812 237.046875 C 266.03125 238.152344 263.816406 237.96875 262.890625 236.492188 C 262.523438 235.9375 262.339844 235.382812 262.339844 235.015625 C 262.152344 237.414062 263.078125 240.738281 263.816406 241.847656 C 264.554688 243.136719 266.953125 243.691406 268.800781 242.398438 C 272.863281 239.261719 276.738281 237.601562 280.800781 236.675781 C 281.90625 235.199219 283.015625 233.539062 284.308594 231.691406 C 284.492188 231.507812 284.492188 231.324219 284.308594 231.324219 C 284.308594 231.136719 284.125 231.136719 283.753906 231.136719 C 278.03125 231.324219 272.675781 233.167969 267.507812 237.046875 "/>
<path style=" stroke:none;fill-rule:nonzero;fill:url(#linear18);" d="M 440.308594 180.183594 C 440.308594 180.371094 440.492188 180.371094 440.492188 180.554688 C 440.492188 180.371094 440.492188 180.183594 440.308594 180.183594 Z M 440.308594 180.183594 "/>
<path style=" stroke:none;fill-rule:nonzero;fill:url(#linear19);" d="M 441.046875 182.769531 C 440.863281 186.644531 437.722656 190.523438 430.152344 194.585938 C 421.476562 199.382812 412.617188 200.675781 403.199219 200.863281 C 380.492188 201.046875 359.261719 192.183594 337.476562 187.382812 C 337.476562 188.308594 337.660156 189.414062 336.921875 190.152344 C 324.738281 199.199219 313.847656 208.246094 306.460938 220.984375 C 306.277344 221.355469 306.277344 221.539062 306.832031 221.539062 C 308.863281 221.355469 310.707031 221.355469 312.554688 221.167969 C 319.199219 210.644531 326.398438 204.738281 337.292969 196.617188 C 338.03125 196.0625 338.953125 195.507812 338.585938 193.292969 C 360.554688 198.09375 377.167969 206.214844 405.601562 206.398438 C 414.09375 206.398438 425.90625 203.628906 432.371094 199.753906 C 439.753906 195.324219 441.785156 192 441.96875 188.675781 C 441.96875 187.570312 441.785156 185.90625 441.601562 185.167969 C 441.414062 184.0625 441.230469 182.585938 440.863281 181.476562 C 441.046875 181.660156 441.046875 182.214844 441.046875 182.769531 "/>
<path style=" stroke:none;fill-rule:nonzero;fill:url(#linear20);" d="M 335.261719 209.539062 C 335.078125 209.722656 334.707031 210.09375 334.339844 210.277344 C 332.125 212.492188 331.570312 215.445312 331.753906 217.660156 C 331.9375 218.585938 332.308594 218.769531 332.675781 218.585938 C 333.046875 218.585938 333.601562 218.398438 333.96875 218.214844 C 334.152344 216.921875 334.707031 215.816406 335.816406 214.707031 C 336.738281 213.96875 337.847656 213.601562 338.769531 213.785156 C 339.691406 212.125 339.875 210.09375 338.769531 209.167969 C 338.398438 208.800781 337.847656 208.617188 337.109375 208.617188 C 336.738281 208.800781 336 208.984375 335.261719 209.539062 "/>
<path style=" stroke:none;fill-rule:nonzero;fill:url(#linear21);" d="M 343.9375 217.292969 C 341.90625 221.355469 338.398438 223.382812 335.078125 224.492188 C 335.078125 224.492188 334.339844 224.675781 334.523438 225.230469 C 334.523438 225.96875 336.921875 227.445312 338.398438 228.371094 C 338.585938 228.371094 338.953125 228.183594 338.953125 228.183594 C 340.617188 227.445312 343.382812 225.785156 345.046875 222.277344 C 346.152344 220.0625 346.707031 218.214844 346.152344 214.152344 C 345.785156 211.382812 345.230469 208.800781 344.492188 207.691406 C 346.152344 210.644531 345.601562 214.339844 343.9375 217.292969 "/>
<path style=" stroke:none;fill-rule:nonzero;fill:url(#linear22);" d="M 283.382812 198.644531 C 283.753906 199.570312 283.753906 201.230469 283.015625 203.078125 C 276.921875 217.292969 265.476562 228.371094 251.445312 228.921875 C 242.953125 229.109375 236.675781 224.863281 233.722656 218.585938 C 235.9375 223.382812 240.371094 227.628906 244.246094 230.03125 C 247.199219 231.875 251.078125 232.984375 255.324219 232.800781 C 269.90625 232.246094 280.984375 220.246094 284.675781 210.09375 C 285.601562 207.324219 284.863281 204.371094 284.492188 202.523438 C 284.125 201.601562 283.9375 199.9375 283.382812 198.644531 Z M 283.382812 198.644531 "/>
<path style=" stroke:none;fill-rule:nonzero;fill:rgb(30.980392%,29.803922%,30.196078%);fill-opacity:1;" d="M 635.261719 232.0625 C 635.445312 232.617188 635.445312 232.984375 635.445312 233.539062 C 635.445312 232.984375 635.261719 232.617188 635.261719 232.0625 M 84.921875 241.292969 C 84.921875 229.109375 90.277344 217.109375 101.539062 205.660156 C 141.230469 165.601562 244.984375 138.644531 359.445312 138.09375 C 511.199219 137.539062 634.707031 182.769531 635.078125 238.890625 C 635.078125 251.078125 629.539062 262.890625 618.277344 274.339844 C 578.585938 314.398438 475.015625 341.539062 360.554688 341.90625 C 208.800781 342.644531 85.292969 297.414062 84.921875 241.292969 M 360 136.246094 C 206.214844 136.246094 83.078125 182.398438 83.078125 240 C 83.078125 297.414062 207.324219 343.753906 360 343.753906 C 512.675781 343.753906 636.921875 297.230469 636.921875 240 C 636.921875 182.769531 512.675781 136.246094 360 136.246094 "/>
<path style=" stroke:none;fill-rule:nonzero;fill:url(#linear23);" d="M 84 240 C 84 242.769531 84.371094 245.355469 84.921875 248.125 C 84.554688 245.90625 84.183594 243.507812 84.183594 241.292969 C 84.183594 228.921875 89.722656 216.554688 100.984375 205.109375 C 140.863281 164.863281 244.800781 137.722656 359.445312 137.355469 C 375.324219 137.355469 391.015625 137.722656 406.152344 138.644531 C 391.199219 137.722656 375.691406 137.167969 360 137.167969 C 206.953125 137.167969 84 182.953125 84 240 "/>
<path style=" stroke:none;fill-rule:nonzero;fill:url(#linear24);" d="M 635.816406 238.890625 C 635.816406 251.261719 630.09375 263.445312 618.644531 274.890625 C 578.953125 314.953125 475.015625 342.277344 360.371094 342.832031 C 344.125 342.832031 328.246094 342.460938 312.738281 341.539062 C 328.0625 342.460938 343.753906 343.015625 359.816406 343.015625 C 512.125 343.015625 635.816406 296.492188 635.816406 240 C 635.816406 237.785156 635.628906 235.753906 635.261719 233.539062 C 635.816406 235.382812 635.816406 237.230469 635.816406 238.890625 "/>
<path style=" stroke:none;fill-rule:nonzero;fill:url(#linear25);" d="M 98.585938 240 C 98.585938 290.214844 215.628906 331.015625 359.816406 331.015625 C 504.183594 331.015625 621.046875 290.214844 621.046875 240 C 621.230469 189.785156 504.371094 149.167969 360 149.167969 C 215.628906 149.167969 98.585938 189.785156 98.585938 240 M 107.816406 240 C 107.816406 194.03125 220.617188 156.921875 360 156.921875 C 499.199219 156.921875 612.183594 194.03125 612.183594 240 C 612.183594 285.96875 499.382812 323.078125 360 323.078125 C 220.800781 323.078125 107.816406 285.96875 107.816406 240 "/>
<path style=" stroke:none;fill-rule:nonzero;fill:url(#linear26);" d="M 507.875 209.167969 C 506.769531 209.167969 506.398438 209.355469 505.847656 210.277344 C 504.183594 213.414062 484.617188 242.585938 481.109375 248.308594 C 480.554688 249.230469 479.816406 249.046875 479.628906 248.125 C 479.261719 244.800781 476.308594 240.921875 471.691406 239.078125 C 468.183594 237.601562 464.675781 237.414062 461.167969 237.785156 C 454.707031 238.707031 448.984375 242.03125 444 245.90625 C 436.429688 251.628906 429.785156 259.199219 421.476562 264.738281 C 416.863281 267.691406 410.585938 270.460938 406.339844 266.398438 C 402.460938 262.890625 403.015625 254.953125 408.738281 248.863281 C 409.292969 248.308594 410.03125 248.675781 410.03125 249.414062 C 409.476562 252.183594 410.214844 254.953125 412.246094 256.800781 C 414.832031 259.015625 418.523438 259.382812 421.660156 257.90625 C 425.355469 256.0625 427.570312 252.554688 428.125 248.492188 C 429.046875 242.214844 424.246094 236.863281 418.339844 236.308594 C 413.539062 235.9375 408.738281 237.601562 404.308594 241.476562 C 402.09375 243.324219 400.800781 244.800781 398.769531 247.570312 C 398.214844 248.308594 397.476562 248.308594 397.660156 247.382812 C 397.847656 239.445312 394.523438 235.015625 388.0625 234.832031 C 382.890625 234.644531 377.539062 237.414062 373.292969 240.921875 C 368.675781 244.617188 364.617188 249.601562 360.183594 254.214844 C 359.628906 254.769531 359.078125 254.769531 359.078125 253.660156 C 358.890625 248.308594 357.601562 243.324219 355.199219 239.628906 C 354.277344 238.339844 352.429688 237.785156 350.953125 238.523438 C 350.214844 238.890625 347.816406 240 345.96875 241.476562 C 345.046875 242.214844 344.675781 243.324219 345.046875 244.617188 C 347.445312 252.554688 346.890625 261.414062 343.753906 268.984375 C 340.800781 276 335.078125 282.09375 328.429688 284.308594 C 324 285.785156 319.382812 285.046875 316.617188 281.167969 C 312.738281 275.816406 314.214844 266.398438 320.125 258.460938 C 325.292969 251.628906 332.675781 247.199219 340.0625 244.429688 C 340.984375 244.0625 341.167969 243.507812 340.800781 242.769531 C 340.429688 241.476562 339.691406 239.816406 339.507812 239.078125 C 338.769531 237.230469 336.921875 237.046875 334.523438 237.230469 C 329.167969 237.785156 324.371094 239.628906 319.382812 242.214844 C 306.832031 248.863281 300.554688 261.96875 297.785156 268.984375 C 296.492188 272.308594 295.382812 274.339844 293.90625 276.183594 C 291.875 278.769531 289.476562 280.984375 284.863281 284.863281 C 284.492188 285.230469 284.125 285.96875 284.492188 286.707031 C 285.046875 287.628906 287.261719 290.953125 288 291.324219 C 288.738281 291.691406 289.660156 291.136719 290.03125 290.953125 C 293.167969 288.738281 297.046875 285.414062 298.890625 283.015625 C 299.445312 282.277344 300.183594 282.644531 300.554688 283.753906 C 302.214844 290.03125 306.832031 295.015625 313.109375 297.230469 C 324.554688 301.109375 336.554688 295.570312 345.601562 285.785156 C 351.324219 279.507812 353.355469 275.628906 355.570312 272.863281 C 359.261719 268.246094 366.644531 257.90625 375.324219 251.261719 C 378.460938 248.863281 382.339844 247.015625 384.183594 248.125 C 385.660156 249.046875 386.214844 251.445312 383.816406 255.875 C 374.953125 272.125 361.847656 291.324219 359.445312 295.9375 C 359.078125 296.675781 359.445312 297.414062 360.183594 297.414062 L 373.660156 297.414062 C 374.398438 297.414062 374.769531 297.046875 374.953125 296.492188 C 381.785156 285.785156 388.246094 275.628906 395.078125 265.109375 C 395.445312 264.554688 395.816406 264.921875 395.816406 265.292969 C 396 267.691406 396.554688 271.015625 398.03125 273.230469 C 400.617188 277.292969 404.308594 278.953125 408.371094 279.136719 C 411.691406 279.136719 413.355469 278.769531 416.863281 277.292969 C 419.816406 276.183594 422.03125 274.890625 423.875 273.601562 C 424.984375 272.863281 425.167969 274.152344 424.984375 274.339844 C 423.324219 282.832031 425.355469 292.984375 433.847656 297.046875 C 444 302.03125 455.078125 295.015625 461.539062 288.738281 C 462.09375 288.183594 462.832031 288.183594 462.832031 289.476562 C 463.015625 291.875 464.125 294.832031 465.96875 296.863281 C 471.324219 302.214844 482.214844 300.183594 492.921875 291.691406 C 499.9375 286.339844 507.136719 278.769531 513.785156 270.644531 C 513.96875 270.277344 514.152344 269.90625 513.785156 269.355469 C 512.863281 268.246094 511.382812 267.136719 510.277344 266.214844 C 509.90625 265.847656 509.167969 266.03125 508.800781 266.214844 C 501.96875 272.675781 496.0625 279.875 487.199219 285.96875 C 484.246094 288 479.445312 289.660156 477.414062 286.890625 C 476.675781 285.785156 476.675781 284.308594 477.414062 282.277344 C 480 275.816406 520.617188 214.152344 522.644531 210.460938 C 523.015625 209.90625 522.644531 209.355469 521.90625 209.355469 C 517.660156 209.167969 512.125 209.167969 507.875 209.167969 M 443.628906 285.046875 C 441.601562 283.9375 440.675781 280.984375 440.675781 278.769531 C 440.863281 272.125 443.816406 265.292969 449.167969 258.644531 C 455.816406 250.523438 463.199219 246.277344 468 248.492188 C 472.984375 250.890625 471.324219 256.617188 469.109375 261.230469 C 468.921875 261.601562 468.921875 261.96875 469.109375 262.152344 C 469.109375 262.707031 469.847656 263.078125 470.398438 263.261719 C 470.585938 263.261719 470.769531 263.445312 470.585938 264 C 468.921875 267.691406 467.261719 269.90625 465.046875 273.046875 C 463.015625 276 460.800781 278.398438 458.03125 280.617188 C 454.890625 283.199219 450.832031 285.96875 446.953125 285.96875 C 445.847656 285.96875 444.554688 285.601562 443.628906 285.046875 "/>
<path style=" stroke:none;fill-rule:nonzero;fill:url(#linear27);" d="M 292.246094 171.691406 C 288.371094 171.691406 284.492188 171.875 280.617188 172.246094 C 255.691406 174.277344 232.0625 188.308594 231.875 209.722656 C 231.875 220.617188 239.628906 229.292969 251.445312 228.921875 C 265.476562 228.371094 276.921875 217.292969 283.015625 203.078125 C 285.230469 197.722656 280.984375 195.507812 279.136719 198.644531 C 275.628906 204.183594 270.460938 208.429688 265.109375 211.199219 C 258.460938 214.339844 251.445312 213.601562 249.414062 208.246094 C 246.460938 200.675781 252.738281 189.414062 266.953125 184.0625 C 287.445312 176.492188 309.046875 181.476562 329.722656 185.355469 C 330.09375 185.355469 331.199219 185.90625 330.09375 186.460938 C 326.398438 188.492188 322.707031 190.152344 316.984375 194.953125 C 312.921875 198.460938 307.570312 203.078125 303.507812 208.0625 C 299.445312 213.046875 296.492188 217.476562 292.617188 222.460938 C 292.0625 223.199219 291.507812 223.199219 291.507812 223.199219 C 282.09375 224.863281 273.046875 225.785156 264.554688 231.691406 C 262.890625 232.800781 262.152344 235.015625 263.078125 236.675781 C 264 238.152344 266.214844 238.339844 267.691406 237.230469 C 272.863281 233.355469 278.214844 231.507812 284.492188 231.324219 C 284.675781 231.324219 284.863281 231.324219 285.046875 231.507812 L 285.046875 231.875 C 275.816406 244.617188 273.601562 247.570312 266.585938 255.507812 C 263.078125 259.570312 259.570312 263.078125 255.691406 266.585938 C 240 281.167969 223.015625 280.984375 216.921875 271.753906 C 213.230469 266.214844 213.785156 260.492188 216.183594 255.691406 C 219.136719 249.785156 225.046875 245.539062 230.03125 242.953125 C 231.875 242.03125 232.429688 239.628906 230.585938 237.601562 C 229.476562 236.125 226.523438 235.9375 224.492188 236.308594 C 218.03125 237.414062 210.460938 242.398438 205.847656 248.308594 C 200.863281 254.953125 198.277344 262.890625 199.015625 271.753906 C 200.492188 288 213.785156 297.230469 228.921875 297.230469 C 240.921875 297.046875 252.371094 293.539062 265.847656 279.691406 C 278.585938 266.769531 290.214844 247.570312 300.921875 229.660156 C 301.292969 229.109375 301.476562 228.738281 303.136719 228.554688 C 309.96875 227.628906 319.9375 226.707031 326.398438 226.339844 C 327.875 226.339844 328.0625 226.339844 328.617188 227.078125 C 330.277344 229.109375 332.863281 230.953125 334.890625 232.0625 C 335.816406 232.617188 336.371094 232.800781 337.109375 232.800781 C 338.03125 232.800781 338.769531 232.246094 339.324219 231.691406 C 340.0625 230.953125 340.246094 230.03125 339.875 229.292969 C 339.507812 228.554688 335.078125 226.152344 334.890625 225.230469 C 334.707031 224.675781 335.445312 224.492188 335.445312 224.492188 C 338.769531 223.382812 342.09375 221.355469 344.308594 217.292969 C 346.339844 213.414062 346.707031 208.0625 343.015625 205.292969 C 339.691406 202.707031 334.707031 203.078125 330.832031 206.769531 C 326.953125 210.277344 325.660156 215.261719 326.214844 219.691406 C 326.214844 220.429688 326.214844 220.800781 325.292969 220.800781 C 319.382812 221.355469 313.660156 221.355469 307.199219 221.722656 C 306.832031 221.722656 306.644531 221.539062 306.832031 221.167969 C 314.214844 208.429688 325.109375 199.382812 337.292969 190.339844 C 338.03125 189.785156 337.847656 188.675781 337.847656 187.570312 C 359.816406 192.371094 380.863281 201.230469 403.570312 201.046875 C 412.984375 201.046875 422.03125 199.570312 430.523438 194.769531 C 438.09375 190.707031 441.230469 186.832031 441.414062 182.953125 C 441.601562 180.183594 439.753906 178.523438 436.984375 179.078125 C 414.09375 184.429688 392.125 184.246094 369.230469 181.476562 C 343.015625 178.152344 318.09375 171.691406 292.246094 171.691406 M 331.753906 217.660156 C 331.382812 215.261719 332.125 211.9375 334.890625 209.722656 C 336.183594 208.617188 338.03125 208.246094 338.953125 209.167969 C 340.246094 210.277344 339.507812 212.863281 338.398438 214.523438 C 337.109375 216.554688 334.707031 218.214844 332.675781 218.585938 L 332.492188 218.585938 C 332.308594 218.769531 331.9375 218.585938 331.753906 217.660156 "/>
</g>
</svg>
